<svg data-v-5ea93185="" data-v-00588106="" xmlns="http://www.w3.org/2000/svg" viewBox="0 0 193.15 193.15" class="logo" data-v-67b9428d=""><g data-v-5ea93185="" id="Calque-2" data-name="Calque 2"><g data-v-5ea93185="" id="Calque-1-2" data-name="Calque 1"><path data-v-5ea93185="" d="M140.28,73.33a66.59,66.59,0,0,1-9.22,33.89,17.35,17.35,0,0,0-8-2,17.56,17.56,0,0,0-15.59,25.68,67,67,0,0,1-53,6.62v0c-.12-.58-.24-1.16-.35-1.74s-.2-1.14-.29-1.71c0,0,0-.07,0-.1-.06-.38-.11-.76-.16-1.14s-.09-.57-.12-.85a1.79,1.79,0,0,1,0-.23c-.07-.52-.14-1-.19-1.57a70.88,70.88,0,0,1-.36-7.18,69.72,69.72,0,0,1,9.79-35.74A17.55,17.55,0,0,0,87.26,62.65,69.88,69.88,0,0,1,123,52.87a70.83,70.83,0,0,1,7.17.36c.53.05,1,.11,1.58.18l.22,0,.85.11,1.15.17.1,0,1.7.29c.59.11,1.18.22,1.77.35A66.63,66.63,0,0,1,140.28,73.33Z" class="cls-1"></path><path data-v-5ea93185="" d="M193.15,123A70.14,70.14,0,0,1,123,193.15c-.61,0-1.21,0-1.82,0l-1.5,0-.76-.05-.73,0-.82-.06c-.66-.05-1.3-.12-1.95-.19-.43,0-.87-.09-1.3-.15l-.17,0c-.49-.06-1-.12-1.46-.2l-.46-.07-1.05-.18-.59-.1-1.21-.23-.41-.08-1.6-.35-1.26-.31-1-.24-1-.28-.22-.06-1.59-.47-.13,0c-.51-.16-1-.32-1.51-.5s-1-.34-1.5-.52l-2-.75-1.36-.55L94.28,187l-.2-.09-1.49-.7L91,185.46l-1.27-.67q-.85-.45-1.68-.93l-1.37-.81c-.56-.33-1.1-.68-1.65-1-.37-.25-.75-.49-1.12-.75-1.09-.72-2.17-1.49-3.21-2.28l-.8-.61-1-.83-.68-.56q-1.68-1.4-3.27-2.88c-.25-.23-.49-.46-.72-.7-.8-.77-1.59-1.56-2.34-2.38-.28-.28-.54-.57-.8-.85-.44-.49-.88-1-1.31-1.48-.21-.25-.44-.51-.65-.77-1-1.25-2-2.52-3-3.84l-.68-1a3.62,3.62,0,0,1-.22-.32c-.21-.31-.43-.62-.64-.94-.5-.75-1-1.51-1.46-2.29-.21-.33-.41-.66-.61-1l-.15-.26-.4-.69-.51-.92c-.57-1-1.1-2.06-1.61-3.12-.12-.24-.23-.48-.35-.73s-.27-.56-.39-.84-.37-.81-.54-1.22l-.34-.8c-.38-.9-.73-1.81-1.07-2.73-.11-.28-.21-.56-.31-.85-.2-.59-.41-1.18-.6-1.77a73.26,73.26,0,0,0,55.1-8.65,17.57,17.57,0,0,0,24.75-24.85,73.22,73.22,0,0,0,8.52-54.87l1.32.44c.87.3,1.74.62,2.59.95l1.28.52c.84.34,1.69.71,2.52,1.1,1.24.57,2.48,1.18,3.68,1.83l1.19.65,1.19.68q2.35,1.37,4.59,2.93c.74.51,1.48,1,2.2,1.6s1.43,1.09,2.13,1.67l1,.86,1,.89c.34.3.68.6,1,.91.66.6,1.32,1.22,2,1.87l.78.79.27.27.7.72q1.45,1.58,2.83,3.21c.23.27.46.55.68.83l.3.38c.24.3.48.6.71.91s.51.66.76,1c.07.08.13.17.2.26.73,1,1.43,2,2.1,3l.14.21c.24.35.46.71.68,1.06s.48.77.71,1.17c.47.77.93,1.57,1.36,2.36l.53,1,.15.3c.2.37.4.76.58,1.14s.34.67.5,1,.27.58.4.86c.29.62.57,1.24.83,1.87.17.41.35.82.51,1.24v0q.24.57.45,1.14c0,.1.08.21.13.32l.31.87c.13.33.25.66.35,1,.38,1.09.74,2.2,1,3.31.11.37.22.75.32,1.11a2.33,2.33,0,0,0,.07.25c.1.41.21.82.31,1.24h0q.18.68.33,1.35c.13.59.26,1.19.38,1.79.08.4.16.81.23,1.21,0,.19.07.39.1.58l.18,1.06c0,.15,0,.3.07.46.07.48.14,1,.2,1.45,0,.06,0,.12,0,.18.06.43.11.86.15,1.3.07.64.14,1.29.19,1.94,0,.28,0,.56,0,.83s0,.48.05.73,0,.51,0,.75c0,.51,0,1,.05,1.51S193.15,122.41,193.15,123Z" class="cls-2"></path><path data-v-5ea93185="" d="M142.49,49a70.61,70.61,0,0,0-7.41-1.56,67,67,0,1,0-87.63,87.64A74.38,74.38,0,0,0,49,142.5,73.32,73.32,0,1,1,142.49,49Z" class="cls-2"></path><circle data-v-5ea93185="" cx="73.32" cy="73.32" r="11.22" class="cls-3"></circle><circle data-v-5ea93185="" cx="123" cy="122.83" r="11.22" class="cls-3"></circle></g></g></svg>